# xmcd
#
# Track frame offsets:
#	150
#	8678
#	18417
#	28013
#	38065
#	47435
#	55965
#	65181
#	75296
#	87272
#	96607
#	106342
#	115567
#	124761
#	136974
#	147294
#	158104
#	167562
#	178823
#	189414
#	198976
#	209404
#	219707
#	227743
#	239125
#
# Disc length: 3304 seconds
#
# Revision: 0
# Processed by: cddbd v1.5.2PL0 Copyright (c) Steve Scherf et al.
# Submitted via: EasyCDDAExtractor 2010.6.0.0
#
DISCID=5d0ce619
DTITLE=O'Gwynn James - Pride Of The Hayride Disc 2
DYEAR=1900
DGENRE=
TTITLE0=Trying To Forget You (1959)
TTITLE1=Easy Money (1959)
TTITLE2=Tears Of Tomorrow (1959)
TTITLE3=There's No Tomorrow (1959)
TTITLE4=That Same Old Heartache (1959)
TTITLE5=Someone Sweet To Love (1960)
TTITLE6=That's All I Got From You (1960)
TTITLE7=You're Too Easy To Remember (1960)
TTITLE8=I Won't Love You Anymore (1960)
TTITLE9=House Of Blue Lovers (1960)
TTITLE10=Another Falling Tear (1960)
TTITLE11=Down On The Corner Of Love (1961)
TTITLE12=I'm Getting Nowhere Fast (1961)
TTITLE13=Your Heart (1961)
TTITLE14=Too Much Of You (1961)
TTITLE15=My Name Is Mud (1962)
TTITLE16=You're Getting All Over Me (1962)
TTITLE17=Does He Mean That Much To You (1962)
TTITLE18=What Do You Want From Me (1962)
TTITLE19=Don't We All The Right (1962)
TTITLE20=That's How It Is (1962)
TTITLE21=Way That You're Living (1962)
TTITLE22=I Fell And Broke My Heart (1962)
TTITLE23=Too Much Time To Cry (1962)
TTITLE24=Slowly (1962)
EXTD=
EXTT0=
EXTT1=
EXTT2=
EXTT3=
EXTT4=
EXTT5=
EXTT6=
EXTT7=
EXTT8=
EXTT9=
EXTT10=
EXTT11=
EXTT12=
EXTT13=
EXTT14=
EXTT15=
EXTT16=
EXTT17=
EXTT18=
EXTT19=
EXTT20=
EXTT21=
EXTT22=
EXTT23=
EXTT24=
PLAYORDER=
